<?xml version="1.0" encoding="UTF-8"?>
<svg id="Calque_2" data-name="Calque 2" xmlns="http://www.w3.org/2000/svg" viewBox="0 0 513 500">
  <defs>
    <style>
      .cls-1 {
        fill: none;
        stroke: #1d1d1b;
        stroke-miterlimit: 10;
        stroke-width: 10px;
      }

      .cls-2 {
        fill: #1d1d1b;
        stroke-width: 0px;
      }
    </style>
  </defs>
  <path class="cls-2" d="m256.5,5.17c33.08,0,65.16,6.47,95.36,19.24,29.17,12.33,55.38,29.98,77.88,52.47,22.5,22.49,40.17,48.67,52.51,77.82,12.77,30.18,19.25,62.24,19.25,95.29s-6.48,65.11-19.25,95.29c-12.34,29.15-30,55.34-52.51,77.82-22.5,22.49-48.7,40.14-77.88,52.47-30.2,12.77-62.29,19.24-95.36,19.24s-65.16-6.47-95.36-19.24c-29.17-12.33-55.38-29.98-77.88-52.47-22.5-22.49-40.17-48.67-52.51-77.82-12.77-30.18-19.25-62.24-19.25-95.29s6.48-65.11,19.25-95.29c12.34-29.15,30-55.34,52.51-77.82,22.5-22.49,48.7-40.14,77.88-52.47,30.2-12.77,62.29-19.24,95.36-19.24m0-5C118.43.17,6.5,112.02,6.5,250s111.93,249.83,250,249.83,250-111.85,250-249.83S394.57.17,256.5.17h0Z"/>
  <circle class="cls-1" cx="257.5" cy="250.12" r="224"/>
  <g>
    <path class="cls-2" d="m72.14,235.52c55.68-12.8,110.06-40.31,168.54-34.43-6.43-15.98-12.86-31.96-19.29-47.93-8.49,12.76-20.46,22.39-31.34,32.98-11.47,11.16-22.18,23.09-32.28,35.5-20.49,25.15-38.49,52.2-55.99,79.47-2.09,3.26-4.17,6.52-6.25,9.78-1.9,2.98-5.3,6.64-6,10.13-.32,1.58.29,3.43.71,4.91,1.72,6.03,4.13,11.93,6.42,17.76,2.33,5.92,4.76,11.81,7.38,17.6,1.4,3.1,2.71,7.25,5.14,9.8,4.44,4.67,14.39,6.36,20.46,7.52,7.54,1.43,15.24,1.8,22.9,1.45,15.82-.73,31.36-4.43,46.51-8.85,15.59-4.54,31.06-9.62,46.35-15.08,33.94-12.12,67.04-27.05,96.51-48.01.73-.52-2.11-8-1.91-7.39-1.94-5.76-4.16-11.47-6.44-17.1-.71-1.75-10.5-23.76-10.94-23.44-26.79,19.05-56.61,33.15-87.31,44.64-15.27,5.72-30.76,10.83-46.34,15.66-15.39,4.77-31.02,9.14-47.08,10.94-8.8.98-17.73,1.17-26.52.04-4.48-.58-8.91-1.5-13.23-2.81-3.41-1.04-9.96-2.32-11.87-5.55,6.2,15.41,12.4,30.81,18.6,46.22-.08-2.07,2.04-4.37,3.07-5.99,1.28-2.01,2.56-4.01,3.84-6.02,2.56-4.02,5.13-8.03,7.71-12.03,4.84-7.51,9.72-15,14.69-22.43,9.92-14.83,20.19-29.44,31.13-43.53,10.9-14.04,22.48-27.58,34.98-40.23,12.29-12.44,26.63-23.31,36.4-38,.69-1.04-1.88-7.31-1.91-7.39-1.94-5.76-4.16-11.47-6.44-17.1-2.29-5.64-4.58-11.3-7.2-16.79-.57-1.19-2.38-6.51-3.74-6.65-58.48-5.88-112.86,21.63-168.54,34.43-1.04.24,7.62,22.7,8.34,24.49,2.29,5.64,4.58,11.3,7.2,16.79.41.87,2.8,6.87,3.74,6.65h0Z"/>
    <path class="cls-2" d="m267.29,270.77c-.38-12.18,2.03-24.52,4.75-36.34,3.31-14.34,7.67-28.54,13.5-42.06,4.44-10.29,9.54-19.77,17.92-27.27,1.36-1.21,1.95-2.33,2.74-3.91.12-.23.28-.44.39-.68l.3-.25c10.55-8.86-1.55-3.43-36.31,16.3,2.71.12,4.85.01,7.5.96,8.5,3.04,14.52,10.66,18.89,18.21,5.31,9.18,8.62,19.55,9.58,30.11,1.04,11.41-.75,23.04,3.7,33.91.59,1.45,22.33-8.38,24.18-9.21,5.55-2.49,11.12-5,16.51-7.83,1.35-.71,6.18-2.45,6.5-4.01,5.31-26.3,11.25-54.51,28.71-75.77,4.59-5.58,10.02-10.35,16.02-14.36,1.41-.94,2.85-1.81,4.32-2.65,2.03-1.16.4-.25,2.47-1.33-3.51,1.84,1.07-.5,2.25-1.08,2.42-1.18-1.63.77-1.7.81-7.6,3.34-15.2,6.67-22.8,10.01l1.42.22c6.49,2.99,10.75,7.2,13.74,13.85,2.85,6.33,3.94,13.34,4.28,20.23.62,12.76.55,25.4,1.76,38.15.04.45,22.4-8.41,24.18-9.21,5.55-2.49,11.12-5,16.51-7.83,1-.53,6.61-2.84,6.5-4.01-1.21-12.75-1.13-25.39-1.76-38.15-.63-12.8-6.8-38.49-24.75-33.64-16.48,4.45-32.34,13-47.6,20.58-9.89,4.91-19.98,9.92-28.8,16.64-12.29,9.36-21.15,22.31-27.28,36.36-7.25,16.64-11.08,34.52-14.66,52.24,15.73-7.02,31.46-14.03,47.18-21.05-4.34-10.61-2.74-21.93-3.63-33.08-.85-10.59-4.04-20.96-9.24-30.22-4.76-8.47-11.97-17.73-22.1-19.73-5.54-1.09-10.76.83-15.88,2.77-13.96,5.27-28.29,11.23-41.24,18.69-4.59,2.65-6.45,6.2-10.17,9.53-4.25,3.81-7.51,8.65-10.32,13.57-7.81,13.64-12.98,28.9-17.15,44-4.21,15.27-8.1,31.62-7.6,47.57,0,.19,22.34-8.39,24.18-9.21,5.55-2.49,11.12-5,16.51-7.83,1.07-.56,6.53-2.75,6.5-4.01h0Z"/>
  </g>
</svg>